<svg id="Layer_1" data-name="Layer 1" xmlns="http://www.w3.org/2000/svg" viewBox="0 0 512 512"><title>syringe-flat</title><rect width="512" height="512" fill="#c0ca33"/><path d="M339.88,183.1l10-11.56c.25-.3-1.1-1.92-3.37-4.16l.86-1c.16-.19-1.45-1.84-3.72-3.87l29-33.6,0-5-31.43,36.44c-2.28-1.89-4.09-3.19-4.26-3l-.85,1c-2.54-1.92-4.34-3-4.6-2.72l-10,11.56c-12-9.82-21.32-16.26-22.24-15.18,0,.05,0,.15,0,.24l-.1-.09L186.54,282.67l8.84,7.63-.23.27-35.36-30.5-4.72,5.45L190.44,296l-35,40.54-9.33-8-6.75,7.83L199.31,388l6.77-7.83-9.34-8.05,35-40.54,35.37,30.51,4.71-5.46-35.37-30.51.23-.27,8.84,7.63L358,203l-.11-.1c.08,0,.18,0,.23-.07C359.09,201.8,351.37,193.57,339.88,183.1Z" fill="#fff"/></svg>